<?xml version="1.0" standalone="no"?>
<!DOCTYPE svg PUBLIC "-//W3C//DTD SVG 20010904//EN"
 "http://www.w3.org/TR/2001/REC-SVG-20010904/DTD/svg10.dtd">
<svg version="1.0" xmlns="http://www.w3.org/2000/svg"
 width="512.000000pt" height="512.000000pt" viewBox="0 0 512.000000 512.000000"
 preserveAspectRatio="xMidYMid meet">

<g transform="translate(0.000000,512.000000) scale(0.100000,-0.100000)"
fill="#000000" stroke="none">
<path d="M0 2560 l0 -2560 2560 0 2560 0 0 2560 0 2560 -2560 0 -2560 0 0
-2560z m2743 2446 c120 -5 217 -17 297 -36 19 -4 69 -16 110 -25 242 -56 501
-167 742 -319 299 -189 591 -490 775 -798 188 -315 287 -609 333 -983 21 -170
56 -193 -367 237 -208 210 -468 473 -579 583 l-200 200 4 -81 c4 -75 2 -85
-30 -155 -19 -41 -45 -99 -59 -129 -13 -30 -35 -77 -49 -105 l-25 -50 -85 -3
c-133 -5 -146 3 -114 66 28 56 23 76 -26 113 -89 69 -130 177 -111 296 8 55 1
73 -30 73 -10 0 -21 5 -24 10 -3 6 -12 10 -20 10 -7 0 -43 14 -78 30 -36 17
-72 30 -81 30 -9 0 -27 -17 -41 -37 -35 -54 -83 -89 -156 -114 -62 -20 -123
-22 -185 -4 -19 6 -29 -14 -113 -212 -51 -120 -99 -228 -107 -240 -13 -21 -22
-23 -119 -23 -59 0 -106 4 -110 10 -6 10 69 207 86 225 5 5 9 15 9 21 0 7 14
42 30 77 17 36 30 68 30 71 0 3 11 29 24 58 31 70 111 258 120 281 6 20 -52
100 -66 91 -8 -5 -48 -87 -48 -98 0 -3 -11 -29 -24 -58 -34 -75 -266 -624
-279 -661 -6 -15 -16 -18 -59 -15 l-53 3 2 35 c1 36 5 52 47 210 14 52 37 140
51 195 15 55 31 116 37 135 26 90 24 102 -30 147 -49 41 -49 42 -60 20 -7 -12
-23 -65 -36 -117 -13 -52 -34 -131 -46 -175 -12 -44 -26 -93 -30 -110 -62
-238 -83 -312 -91 -328 -8 -14 -20 -17 -52 -15 l-42 3 3 96 c3 93 2 97 -22
113 -14 9 -28 16 -31 16 -3 0 -5 -36 -5 -81 0 -114 -4 -119 -95 -119 -83 0
-113 -16 -95 -50 10 -19 40 -20 1038 -22 l1027 -3 53 -24 c67 -30 142 -111
160 -172 8 -28 12 -89 10 -169 l-3 -125 -285 -6 c-157 -3 -296 -9 -310 -13
-64 -20 -134 -63 -174 -107 -195 -216 -96 -540 189 -618 24 -7 146 -11 313
-11 l272 0 0 -134 c0 -110 -3 -142 -19 -179 -23 -53 -70 -109 -117 -138 -79
-48 -81 -48 -1162 -49 -1032 0 -1066 1 -1139 38 -51 26 -50 7 4 -55 27 -32
105 -128 174 -213 68 -85 128 -160 134 -166 5 -6 53 -64 105 -129 52 -65 141
-175 198 -244 57 -69 108 -133 115 -141 86 -107 226 -279 239 -295 127 -154
168 -206 168 -215 0 -13 -56 -12 -225 5 -178 19 -240 29 -362 59 -280 70 -491
160 -737 315 -302 190 -596 491 -783 803 -74 123 -158 299 -203 423 -34 96
-38 109 -68 225 -18 71 -25 103 -53 245 -16 85 -23 520 -10 630 31 263 80 452
176 685 179 433 534 854 933 1106 241 152 500 263 742 319 41 9 91 21 110 25
103 25 410 51 505 43 17 -1 88 -5 158 -7z m473 -1416 c78 -35 140 -92 178
-162 50 -92 65 -88 -312 -88 -381 0 -365 -4 -338 84 27 85 75 139 153 173 94
41 220 38 319 -7z m703 -899 l31 -29 0 -232 c0 -139 -4 -239 -10 -251 -25 -45
-52 -49 -340 -49 -309 0 -339 5 -415 72 -64 57 -94 113 -102 190 -13 148 70
276 207 319 14 4 154 8 311 8 l287 1 31 -29z"/>
<path d="M3423 2515 c-31 -13 -63 -59 -63 -90 0 -60 79 -116 132 -94 39 16 68
55 68 91 0 39 -28 85 -56 92 -12 3 -28 8 -36 11 -7 2 -27 -2 -45 -10z"/>
</g>
</svg>
